Coordinates
version=1
nRows=34
nColumns=34
inDegrees=no

Units are S.I. units (second, meters, Newtons, ...)
If the header above contains a line with 'inDegrees', this indicates whether rotational values are in degrees (yes) or radians (no).

endheader
time	pelvis_tilt	pelvis_list	pelvis_rotation	pelvis_tx	pelvis_ty	pelvis_tz	hip_flexion_r	hip_adduction_r	hip_rotation_r	knee_angle_r	ankle_angle_r	subtalar_angle_r	mtp_angle_r	hip_flexion_l	hip_adduction_l	hip_rotation_l	knee_angle_l	ankle_angle_l	subtalar_angle_l	mtp_angle_l	lumbar_extension	lumbar_bending	lumbar_rotation	arm_flex_r	arm_add_r	arm_rot_r	elbow_flex_r	pro_sup_r	arm_flex_l	arm_add_l	arm_rot_l	elbow_flex_l	pro_sup_l
0.9	0.229673	0.0643755	0.00764183	0.992162	1.0621	-0.318021	0.28784	-0.194387	-0.104112	1.20819	-0.18439	-0.343527	-0.129736	-0.212423	0.0784295	-0.109212	0.214853	0.25579	0.329998	-0.129736	-0.476449	-0.0618873	-0.0799362	0.0410909	-0.187486	-0.15582	0.669402	1.74383	0.204975	-0.251759	0.116589	0.852149	1.6688
0.91	0.224624	0.0617476	0.000964248	1.00313	1.0619	-0.316824	0.314005	-0.180781	-0.10174	1.17485	-0.165345	-0.316815	-0.129736	-0.223788	0.0755714	-0.12131	0.205842	0.25989	0.340216	-0.129736	-0.473589	-0.0621061	-0.0751462	0.0383836	-0.187985	-0.161091	0.667174	1.74179	0.225007	-0.255719	0.124598	0.864097	1.6669
0.92	0.236753	0.0604803	0.00942148	1.01613	1.06347	-0.318459	0.306765	-0.178525	-0.122661	1.12897	-0.136631	-0.273075	-0.129736	-0.262411	0.0740011	-0.113387	0.184043	0.255119	0.338097	-0.129736	-0.486007	-0.0542189	-0.0854583	0.0331842	-0.191592	-0.163921	0.666807	1.73145	0.240938	-0.257261	0.131503	0.878793	1.65263
0.93	0.232031	0.0592128	0.00106253	1.02724	1.0629	-0.317097	0.327134	-0.165539	-0.119788	1.08456	-0.121409	-0.245502	-0.129736	-0.274943	0.0733479	-0.128119	0.173765	0.258024	0.349166	-0.129736	-0.483406	-0.0563409	-0.0791405	0.0310351	-0.192442	-0.168444	0.663054	1.73269	0.259841	-0.261274	0.139602	0.891578	1.65135
0.94	0.235489	0.0581792	3.5221e-05	1.03943	1.06306	-0.317108	0.329645	-0.15757	-0.128277	1.031	-0.103574	-0.211119	-0.129736	-0.3004	0.0726111	-0.135064	0.157723	0.257398	0.356886	-0.129736	-0.487812	-0.0539978	-0.0797965	0.0277489	-0.194901	-0.172134	0.659417	1.7342	0.276142	-0.263908	0.146826	0.905532	1.64674
0.95	0.238099	0.0578732	-0.00144669	1.05171	1.0629	-0.317084	0.330186	-0.150249	-0.136179	0.972147	-0.0883676	-0.178342	-0.129736	-0.325212	0.0729499	-0.142686	0.14127	0.256361	0.364148	-0.129736	-0.491119	-0.052499	-0.0800604	0.0246899	-0.197366	-0.175644	0.655208	1.73454	0.291552	-0.266535	0.154149	0.920088	1.64083
0.96	0.239581	0.0580626	-0.0032934	1.06407	1.0624	-0.31702	0.328919	-0.143329	-0.14339	0.907895	-0.0754436	-0.147454	-0.129736	-0.348841	0.0740444	-0.151251	0.124897	0.255509	0.371898	-0.129736	-0.49302	-0.0515905	-0.0798629	0.0218086	-0.199774	-0.179385	0.650356	1.73542	0.306056	-0.269135	0.161936	0.935938	1.62802
0.97	0.239832	0.0581696	-0.00552669	1.07651	1.06155	-0.316891	0.325699	-0.136077	-0.149789	0.837873	-0.0645178	-0.11883	-0.129736	-0.370695	0.0751298	-0.162116	0.109617	0.256009	0.38295	-0.129736	-0.493424	-0.0507421	-0.078958	0.0191012	-0.202173	-0.183296	0.645078	1.73619	0.319578	-0.271397	0.168967	0.950794	1.62283
0.98	0.238765	0.058508	-0.0077743	1.089	1.06038	-0.31675	0.320386	-0.129086	-0.15565	0.761878	-0.0547809	-0.092147	-0.129736	-0.390944	0.07664	-0.172818	0.0947775	0.256622	0.393397	-0.129736	-0.492371	-0.050066	-0.0778583	0.0166163	-0.20453	-0.187193	0.639654	1.73561	0.332141	-0.273425	0.175615	0.965626	1.61857
0.99	0.236632	0.05861	-0.00992538	1.10153	1.05893	-0.316596	0.31225	-0.121843	-0.161194	0.679293	-0.0459382	-0.067802	-0.129736	-0.409547	0.0779361	-0.183975	0.0810243	0.257865	0.404637	-0.129736	-0.490185	-0.0490132	-0.0765262	0.0143646	-0.20695	-0.190874	0.634272	1.73381	0.343674	-0.275136	0.181693	0.980546	1.61455
1	0.233819	0.0582969	-0.0117229	1.11412	1.05729	-0.316455	0.300424	-0.114275	-0.16686	0.589717	-0.0377946	-0.0462943	-0.129736	-0.426836	0.0787218	-0.195338	0.0685568	0.25965	0.41654	-0.129736	-0.487312	-0.0472477	-0.0752225	0.0123733	-0.209452	-0.194588	0.628526	1.73574	0.354053	-0.276448	0.186699	0.994951	1.61513
1.01	0.230713	0.0575999	-0.0128599	1.12681	1.05548	-0.316346	0.284241	-0.106527	-0.173118	0.493365	-0.0304436	-0.0283612	-0.129736	-0.443148	0.078857	-0.206692	0.0576081	0.26193	0.429203	-0.129736	-0.484094	-0.0446581	-0.0742196	0.0104957	-0.212155	-0.196611	0.62438	1.72336	0.363211	-0.277663	0.192073	1.01276	1.59499
1.02	0.227687	0.0567745	-0.0131607	1.13969	1.05352	-0.316268	0.263627	-0.0989188	-0.180187	0.39182	-0.0241528	-0.014723	-0.129736	-0.458743	0.0784107	-0.218176	0.0485875	0.264915	0.443436	-0.129736	-0.480812	-0.0414728	-0.0738193	0.00863463	-0.214704	-0.1995	0.619259	1.72148	0.370962	-0.278445	0.195701	1.02872	1.58892
1.03	0.224703	0.0567471	-0.0125103	1.15278	1.05136	-0.316207	0.240065	-0.0925117	-0.187973	0.289125	-0.0185826	-0.00500979	-0.129736	-0.473648	0.0782182	-0.228319	0.0413887	0.268069	0.457424	-0.129736	-0.477299	-0.0386809	-0.0743334	0.00652037	-0.216848	-0.202924	0.614194	1.72124	0.377366	-0.27916	0.198737	1.04483	1.58409
1.04	0.221516	0.0581516	-0.0112579	1.16608	1.04892	-0.316095	0.216374	-0.0879413	-0.195262	0.191761	-0.0128156	0.00176699	-0.129736	-0.487285	0.0788565	-0.236874	0.0365965	0.271589	0.471236	-0.129736	-0.473293	-0.0371923	-0.0755136	0.0040275	-0.218284	-0.207973	0.608733	1.72876	0.382598	-0.279914	0.201313	1.06002	1.58702
1.05	0.217838	0.0610728	-0.00996867	1.17946	1.04619	-0.315866	0.196042	-0.0854456	-0.199579	0.107695	-0.00543851	0.0066869	-0.129736	-0.498906	0.080483	-0.24358	0.0348543	0.275585	0.484429	-0.129736	-0.468739	-0.0373736	-0.0767113	0.00131317	-0.219075	-0.213962	0.603981	1.73514	0.387043	-0.280816	0.204219	1.07533	1.59009
1.06	0.213721	0.0647376	-0.00913462	1.19277	1.04327	-0.315514	0.181791	-0.0846696	-0.197768	0.0442223	0.00444193	0.00966793	-0.129736	-0.508117	0.0824769	-0.248307	0.0367055	0.280046	0.496307	-0.129736	-0.464154	-0.0385212	-0.0771504	-0.00111997	-0.219588	-0.220351	0.600237	1.73818	0.391105	-0.281615	0.207486	1.09054	1.59315
1.07	0.209622	0.0678318	-0.00895004	1.20586	1.04033	-0.315093	0.174841	-0.0847586	-0.187683	0.00615716	0.0165485	0.00987433	-0.129736	-0.515139	0.0836699	-0.250941	0.0423569	0.284758	0.506042	-0.129736	-0.460451	-0.039127	-0.0762894	-0.00267205	-0.220377	-0.226666	0.597242	1.73981	0.394982	-0.281866	0.210647	1.10513	1.59828
1.08	0.205897	0.0703894	-0.00883503	1.21866	1.03754	-0.314774	0.176049	-0.0861868	-0.171569	0	0.0319352	0.0116373	-0.129736	-0.521672	0.0845483	-0.245168	0.0488511	0.286291	0.502342	-0.129736	-0.458346	-0.0387344	-0.0750333	-0.00276588	-0.22196	-0.229773	0.596921	1.7179	0.398644	-0.281654	0.214151	1.12227	1.58517
1.09	0.203333	0.0676315	-0.0105151	1.23141	1.03491	-0.314189	0.182142	-0.0821245	-0.145769	0.0086478	0.0414812	0.00313815	-0.129736	-0.523599	0.0792893	-0.250886	0.0645711	0.294014	0.518202	-0.129736	-0.458042	-0.0332593	-0.0699963	-0.00190158	-0.224402	-0.236841	0.592302	1.74432	0.401137	-0.27966	0.214287	1.13228	1.61592
1.1	0.201331	0.0633143	-0.0121765	1.24411	1.03248	-0.313633	0.194078	-0.0766909	-0.120434	0.0415553	0.0500711	-0.00110478	-0.129736	-0.523599	0.0726676	-0.249755	0.0807764	0.298434	0.522216	-0.129736	-0.458961	-0.0258059	-0.0648429	0.000190164	-0.227589	-0.240671	0.589315	1.7545	0.402128	-0.27738	0.213658	1.14473	1.63128
1.11	0.200351	0.0560563	-0.0142742	1.25704	1.03025	-0.312946	0.207874	-0.0674127	-0.0976884	0.0854237	0.0533048	-0.00503712	-0.129736	-0.523599	0.0629642	-0.249409	0.0994956	0.302135	0.526254	-0.129736	-0.460823	-0.015356	-0.0587093	0.00278882	-0.231551	-0.240543	0.588912	1.74131	0.400735	-0.274936	0.21271	1.1615	1.61932
1.12	0.200406	0.0459807	-0.0165022	1.27038	1.02824	-0.312125	0.220439	-0.054461	-0.0803899	0.131699	0.0499903	-0.00965926	-0.129736	-0.523599	0.0502007	-0.250932	0.120505	0.304674	0.531398	-0.129736	-0.463251	-0.00202758	-0.0521079	0.00563822	-0.235789	-0.239448	0.588404	1.73127	0.39637	-0.272241	0.210003	1.17826	1.60741
1.13	0.19354	0.0395537	-0.015091	1.28314	1.02657	-0.312238	0.241075	-0.0479193	-0.0822096	0.182609	0.0534546	0.00931663	-0.129736	-0.523599	0.0447497	-0.217061	0.12647	0.292837	0.472947	-0.129736	-0.457866	0.0101868	-0.0511109	0.00838796	-0.240733	-0.236738	0.58257	1.7549	0.386873	-0.267887	0.202122	1.18383	1.6502
1.14	0.195536	0.0237255	-0.0178157	1.2976	1.02508	-0.311014	0.245479	-0.0286026	-0.0759242	0.217206	0.0372555	-0.00313003	-0.129736	-0.523599	0.025166	-0.232038	0.155765	0.294505	0.494762	-0.129736	-0.460432	0.0290211	-0.0434056	0.0111536	-0.244788	-0.235186	0.581339	1.75727	0.376037	-0.264779	0.196451	1.19747	1.65101
1.15	0.19699	0.00720721	-0.0199573	1.31238	1.02393	-0.309691	0.247622	-0.00928665	-0.0763326	0.2462	0.0200907	-0.0148387	-0.129736	-0.523599	0.00440932	-0.246319	0.186511	0.290644	0.511899	-0.129736	-0.461793	0.0486163	-0.036276	0.0136195	-0.248226	-0.233434	0.580395	1.75935	0.362406	-0.261694	0.190692	1.20942	1.65255
1.16	0.197561	-0.00938701	-0.0217634	1.32748	1.02307	-0.308205	0.248576	0.00948703	-0.0815814	0.271344	0.00451197	-0.0261035	-0.129736	-0.523599	-0.017303	-0.261191	0.220015	0.281119	0.526981	-0.129736	-0.461455	0.0681594	-0.0295704	0.0155315	-0.250798	-0.231798	0.579848	1.76128	0.34627	-0.25873	0.185326	1.21932	1.65468
1.17	0.197226	-0.0238437	-0.023011	1.34279	1.02253	-0.306655	0.249602	0.0251463	-0.0908926	0.2956	-0.00514325	-0.0339064	-0.129736	-0.523599	-0.0373172	-0.271305	0.254994	0.263465	0.532183	-0.129736	-0.459435	0.0855055	-0.0241586	0.0169074	-0.25219	-0.230619	0.579797	1.76289	0.328409	-0.256049	0.180819	1.22673	1.65765
1.18	0.195942	-0.0384219	-0.0244328	1.35895	1.02186	-0.304808	0.251153	0.0409828	-0.1007	0.319175	-0.00947384	-0.0427151	-0.129736	-0.523599	-0.0594756	-0.28518	0.296443	0.241688	0.542304	-0.129736	-0.454866	0.102487	-0.0185351	0.0173491	-0.252707	-0.229767	0.580311	1.76573	0.308786	-0.253383	0.176837	1.23161	1.6612
1.19	0.19805	-0.0544744	-0.0271184	1.37422	1.02204	-0.302255	0.245562	0.0601701	-0.105733	0.338997	-0.0103526	-0.0563623	-0.129736	-0.517402	-0.0882236	-0.313195	0.349063	0.213849	0.575287	-0.129736	-0.45552	0.119058	-0.0101207	0.017491	-0.251202	-0.233705	0.583393	1.76927	0.289993	-0.251928	0.17475	1.23775	1.65626
1.2	0.193512	-0.0646286	-0.0272049	1.38949	1.02208	-0.30038	0.248701	0.0710215	-0.116018	0.363897	0.00210666	-0.057442	-0.129736	-0.497809	-0.109441	-0.317284	0.400532	0.179627	0.569316	-0.129736	-0.447685	0.131643	-0.00675647	0.0173054	-0.249869	-0.23402	0.584614	1.77862	0.269469	-0.249341	0.170745	1.23649	1.66935
1.21	0.188222	-0.0742607	-0.0263054	1.40455	1.02225	-0.298541	0.25095	0.0814006	-0.124828	0.386903	0.0190442	-0.0576311	-0.129736	-0.472691	-0.132062	-0.317647	0.458238	0.141606	0.556742	-0.129736	-0.439054	0.143867	-0.00393875	0.0169301	-0.248292	-0.233505	0.587723	1.77939	0.249319	-0.246469	0.167024	1.23475	1.67131
1.22	0.182105	-0.083705	-0.0240186	1.41933	1.02248	-0.296814	0.252148	0.0916204	-0.132319	0.406886	0.0383493	-0.0572147	-0.129736	-0.441803	-0.156235	-0.313139	0.521999	0.100896	0.535362	-0.129736	-0.429719	0.156214	-0.00194044	0.0166747	-0.246675	-0.232378	0.59183	1.77832	0.229883	-0.243125	0.162729	1.23106	1.6728
1.23	0.175124	-0.0934317	-0.0201663	1.43378	1.02269	-0.295235	0.252266	0.102252	-0.138645	0.423001	0.0578152	-0.0572562	-0.129736	-0.405312	-0.18209	-0.303521	0.59107	0.0584722	0.504234	-0.129736	-0.419702	0.169206	-0.000675021	0.0166178	-0.245216	-0.230914	0.596375	1.77992	0.211431	-0.239269	0.158108	1.22599	1.67017
